<svg xmlns="http://www.w3.org/2000/svg" viewBox="0 0 1300 2000" enable-background="new 0 0 1300 2000">
<path fill="#AEABDF" d="M336.3 311.8c-.3 40-32.7 72.4-73 72.4-40-.3-72.4-32.7-72.4-73s32.7-72.4 73-72.4c40.2.3 72.7 32.8 72.4 73z"/>
<path fill="#231F20" d="M295.7 390.8c-79.6 20.4-164-43.9-167.6-46.6l-3.9-3 1.8-4.5c.3-.6 7.2-17.7 20.7-39.4l4.5-7.2c20.1-30.3 52.6-67.3 97.3-79.3l1.8-.6c79.6-20.4 164 43.9 167.6 46.6l3.9 3-1.8 4.5c-1.8 4.2-42.4 103.9-122.6 125.9l-1.7.6zm-155.6-54c17.4 12.3 88.3 57.7 152.3 41.5l1.8 6.3-.9-6.6c65.2-17.7 103.6-94 112.6-113.6-17.4-12.3-88.3-57.7-152.3-41.5l-3.3-6 1.8 6.3c-42.1 11.4-73 47.8-91.3 76.3l-6.9 11.7-.3-.3c-6.6 11.4-11.1 20.7-13.5 25.9zM293.6 381.2c-43.6 11.1-88.3-15-100.3-58.3-12-43.9 14.1-89.5 58-101.5l1.2-.3c43.6-11.1 88.3 15 100.3 58.3 12 43.9-14.1 89.5-58 101.5l-1.2.3zm-37.8-147.5c-38.2 10.5-60.1 48.7-49.9 85.6 9.9 36.3 47.8 58.3 84.4 49l1.5 6.3-.6-6.6c36.9-10.2 58.9-48.4 48.7-85.3-9.6-36.4-47.5-58.3-84.1-49zM279.2 325c-12.6 3.3-25.5-4.5-29.1-16.8-3.3-12.6 4.2-25.8 16.8-29.4 12.9-3.3 25.8 4.2 29.4 16.8 1.8 6 .9 12.6-2.4 18s-8.4 9.3-14.7 11.4zm-8.7-33.9c-5.7 1.5-9.3 7.5-7.8 13.2 1.5 5.7 7.2 9 12.9 7.5l1.8 6.3-1.5-6.3c2.7-.6 5.1-2.4 6.6-5.1 1.5-2.4 1.8-5.4.9-8.1-1.2-5.4-7.2-8.7-12.9-7.5zM132 306.7l-33.6-15.6 5.7-12 33.3 15.6zM144.6 285.7l-30.9-20.4 7.2-10.9 30.9 20.2zM157.8 265.6l-27.6-24.7 9-9.6 27.7 24.6zM176.8 248.7l-25-27.3 10-9 24.6 27.6z"/>
<circle fill="#AEABDF" cx="112.8" cy="687.9" r="50.2"/>
<path fill="#231F20" d="M103.2 735.1c-54.1-18.3-78.7-87.7-79.9-90.4l-1.2-3.3 2.7-1.8c.6-.3 10.8-7.5 27-15l5.4-2.4c23.1-9.9 55.9-19.2 86.5-9.3l1.2.3c54.1 18.3 78.7 87.7 79.9 90.4l1.2 3.3-2.7 1.8c-2.7 1.8-64 44.5-119 26.7l-1.1-.3zm-70-90.4c5.7 13.8 29.4 67 73 81.7l-1.5 4.5 1.8-4.2c44.8 14.4 95.8-15.3 108.4-23.4-5.7-13.8-29.4-67-73-81.7l.3-4.8-1.5 4.5c-28.8-9.3-60.4.3-82 9.6l-8.4 4.2v-.3c-7.5 4.2-13.8 7.8-17.1 9.9zM105.6 728.5c-29.4-9.9-45.7-42.4-36.3-71.8 9.6-30 42.1-46.9 72.1-37.2l.9.3c29.4 9.9 45.7 42.4 36.3 71.8-9.6 30-42.1 46.9-72.1 37.2l-.9-.3zm33.9-100.1c-26.1-8.4-53.2 5.7-61.3 30.9-8.1 24.9 5.7 52 30.6 60.4l-1.5 4.5 2.1-4.2c25.2 8.1 52.6-6 60.7-31.2 7.9-24.6-5.9-51.9-30.6-60.4zM118.5 690.6c-8.4-3-13.2-12.3-10.5-20.7 2.7-8.7 12.3-13.5 20.7-10.8 8.7 3 13.5 12.3 10.8 21-1.2 4.2-4.2 7.5-8.1 9.6s-8.4 2.4-12.9.9zm7.8-22.8c-3.9-1.2-8.4.9-9.6 4.8-1.2 3.9.9 8.1 4.5 9.3l-1.5 4.5 1.5-4.2c1.8.6 3.9.6 5.7-.6s3-2.4 3.6-4.5c1.8-3.9-.3-8.1-4.2-9.3zM39.8 624.2l-13.5-21.6 7.8-5.1 13.5 21.9zM55.1 616.7l-10.2-23.4 8.4-3.6 10.2 23.4zM70.4 610.1l-6.6-24.6 8.7-2.4 6.9 24.6zM87.6 607.4l-4-25.2 9.1-1.5 3.9 25.5z"/>
<circle fill="#AEABDF" cx="265.7" cy="900.6" r="32.1"/>
<path fill="#231F20" d="M291.8 929.1c-30.9 19.2-75.4 3.3-77.2 2.7l-2.1-.6.3-2.1c0-.3.6-8.4 3.6-19.5l.9-3.6c4.5-15.3 13.2-35.4 30.6-46.6l.6-.6c30.9-19.2 75.4-3.3 77.2-2.7l2.1.6-.3 2.1c-.3 2.1-4.2 49.9-35.1 69.7l-.6.6zm-73.3-2.4c9 3 45.1 12.6 70-3l1.5 2.4-1.2-2.7c25.2-16.2 31.5-53.8 32.4-63.1-9-3-45.1-12.6-70 3l-2.1-2.1 1.5 2.4c-16.2 10.5-24.3 30-28.5 44.5l-1.5 6c-.9 5.7-1.8 10.2-2.1 12.6zM289.7 925.2c-16.8 10.5-39.7 5.4-50.2-11.4-11.1-17.1-6-39.7 11.1-50.8l.6-.3c16.8-10.5 39.7-5.4 50.2 11.4 11.1 17.1 6 39.7-11.1 50.8l-.6.3zm-35.7-57.3c-14.7 9.6-18.9 28.5-9.6 43 9 14.1 27.9 18.3 42.4 9.6l1.5 2.4-1.2-2.7c14.4-9.3 18.3-28.2 9.3-42.7-9.4-14.4-28.3-18.7-42.4-9.6zM275.9 903.3c-4.8 3-11.4 1.5-14.4-3.3-3.3-4.8-1.8-11.4 3.3-14.7 5.1-3.3 11.7-1.8 14.7 3.3 1.5 2.4 2.1 5.1 1.5 8.1-.9 2.4-2.4 4.8-5.1 6.6zm-8.1-13.2c-2.4 1.5-3 4.5-1.5 6.6 1.5 2.1 4.5 3 6.6 1.5l1.5 2.4-1.5-2.4c1.2-.6 1.8-1.8 2.1-3 .3-1.2 0-2.4-.6-3.6-1.5-2.1-4.5-3-6.6-1.5zM211 915.3l-16.2-2.1.9-6 16.2 2.4zM199.338 894.309l15.87 4.514-1.642 5.771-15.87-4.514zM216.7 894.3l-15-6.6 2.4-5.4 15 6.6zM211.056 871.314l14.216 8.375-3.046 5.17-14.216-8.375z"/>
<path fill="#AEABDF" d="M1213.7 302.8c-18.3 17.1-47.2 15.9-64.3-2.4-17.1-18.3-15.9-47.2 2.4-64.3 18.3-17.1 47.2-15.9 64.3 2.4 17.2 18.6 16.3 47.5-2.4 64.3z"/>
<path fill="#231F20" d="M1161.2 314.5c-43.3-27.9-50.2-94-50.2-96.7l-.3-3 3-1.2c.6-.3 11.1-4.2 26.7-7.2l5.1-.9c22.5-3.6 53.2-4.5 78.1 10.5l.9.6c43.3 27.6 50.2 94 50.2 96.7l.3 3-3 1.2c-2.7.9-65.8 24.9-109.9-2.4l-.9-.6zm-41.5-94.3c1.8 13.2 11.4 65.2 46.3 87.4l-2.1 3.3 2.7-3.3c36 22.2 87.4 7.2 100.3 3-1.8-13.2-11.4-65.2-46.3-87.4l1.2-4.2-2.1 3.6c-23.1-14.4-52.9-12.9-73.9-9.3l-8.4 1.8v.3c-8.4 1.8-14.4 3.6-17.7 4.8zM1164.8 309.4c-23.7-15-30.9-46.9-16.2-70.9 15-24.3 46.9-31.8 71.2-16.8l.6.6c23.7 15 30.9 46.9 16.2 70.9-15 24.3-46.9 31.8-71.2 16.8l-.6-.6zm51.4-80.2c-21-12.9-47.8-6.6-60.4 13.8-12.3 20.1-6.3 46.9 13.5 59.5l-2.1 3.3 2.7-3c20.4 12.6 47.5 6.3 60.1-14.1 12.3-20.1 6.3-46.9-13.8-59.5zM1184.6 278.8c-6.9-4.5-9-13.5-4.5-20.4 4.5-7.2 13.5-9.3 20.7-4.8 7.2 4.5 9 13.8 4.8 20.7-2.1 3.3-5.4 5.7-9.3 6.6-3.9.9-8.1 0-11.7-2.1zm11.7-18.3c-3.3-2.1-7.5-.9-9.3 2.1-1.8 3-.9 7.2 2.1 9.3l-2.1 3.3 2.4-3.3c1.5.9 3.3 1.2 5.1.9s3.3-1.5 4.2-3c1.5-3.3.6-7.2-2.4-9.3zM1129.9 203.7l-7.2-22 7.8-2.7 7.2 22.3zM1145 200.4l-3.9-22.9 8.1-1.2 3.9 22.9zM1159.7 198l-.3-23.2 8.1-.3.6 23.5zM1175.6 199.5l1.8-23.2 8.4.6-2.1 23.2z"/>
<circle fill="#AEABDF" cx="1190.3" cy="832.1" r="26.4"/>
<path fill="#231F20" d="M1175.9 860.9c-23.7-18-24.6-56.5-24.6-58.3v-1.8l1.8-.6c.3 0 6.6-1.8 15.9-3l3-.3c13.2-1.2 30.9-.3 44.8 9.6l.6.6c23.7 18 24.6 56.8 24.6 58.3v1.8l-1.8.6c-1.5.6-39.4 11.4-63.7-6.3l-.6-.6zm-19.8-56.4c.6 7.8 3.6 38.2 22.8 52.9l-1.5 1.8 1.8-1.8c19.8 14.4 50.2 8.4 58 6.3-.6-7.8-3.6-38.2-22.8-52.9l.9-2.4-1.5 1.8c-12.6-9.3-30-9.9-42.4-8.7l-4.8.6c-4.8.9-8.4 1.8-10.5 2.4zM1178.3 858.2c-12.9-9.9-15.6-28.5-6-41.8 9.6-13.5 28.5-16.2 42.1-6.6l.3.3c12.9 9.9 15.6 28.5 6 41.8-9.6 13.5-28.5 16.2-42.1 6.6l-.3-.3zm33.3-44.1c-11.4-8.4-27.3-6-35.7 5.1-8.1 11.1-6 26.7 5.1 35.1l-1.5 1.8 1.8-1.8c11.1 8.4 27 5.7 35.4-5.4 8.2-10.8 5.8-26.7-5.1-34.8zM1190.9 841.4c-3.6-3-4.5-8.4-1.8-12 2.7-3.9 8.4-4.8 12.3-1.8 3.9 3 4.5 8.4 1.8 12.3-1.5 1.8-3.3 3-5.7 3.3-2.4.3-4.5-.3-6.6-1.8zm7.5-10.2c-1.8-1.2-4.2-.9-5.4.9-1.2 1.8-.9 4.2.6 5.4l-1.5 1.8 1.5-1.8c.9.6 1.8.9 3 .6.9-.3 1.8-.6 2.4-1.5 1.5-1.5 1.2-3.9-.6-5.4zM1162.7 795.5l-3-13.3 4.5-1.2 3.3 13.3zM1175.281 780.33l1.194 13.447-4.781.425-1.194-13.447zM1180.4 793.4l.6-13.3 4.8.3-.6 13.3zM1189.4 794.9l2.1-13.3 4.8.9-2.4 13.3z"/>
<path fill="#AEABDF" d="M1184.6 616.4c5.7 49.9-30.3 94.9-79.9 100.3-49.9 5.7-94.9-30.3-100.3-79.9-5.7-49.9 30.3-94.9 79.9-100.3 49.5-5.7 94.6 30.1 100.3 79.9z"/>
<path fill="#231F20" d="M1140.1 717.4c-96.1 36.9-210.6-30.6-215.4-33.6l-5.4-3.3 1.5-6c.3-.9 6.3-23.1 20.1-52l4.5-9.6c20.4-40.6 55.6-91.3 109.6-112.9l2.4-.9c95.8-36.9 210.6 30.6 215.4 33.6l5.4 3.3-1.8 6c-1.5 5.4-37.5 135.5-134 174.5l-2.3.9zm-201.2-44.5c23.7 12.6 118.4 58.9 195.3 29.1l3 7.8-2.1-8.1c78.7-31.5 115.4-131.9 123.8-157.7-23.7-12.6-118.4-58.9-195.3-29.4l-5.1-6.9 3 7.5c-50.5 20.4-83.8 70-102.4 108.1l-6.9 15.6-.3-.3c-6.7 15.4-10.9 27.4-13 34.3zM1136.2 705.6c-52.6 20.1-112.3-5.7-133.4-58-21.3-52.9 4.5-113.6 57.4-134.9l1.5-.6c52.6-20.1 112.3 5.7 133.4 58 21.3 52.9-4.5 113.3-57.4 134.9l-1.5.6zm-68.4-177.8c-46 18.6-67.3 69.4-49.6 113.9 17.7 43.9 67.9 65.8 112 48.7l3 7.8-1.8-8.1c44.5-18 66.1-68.8 48.1-113.3-17.4-44.2-67.6-66.1-111.7-49zM1110.1 637.8c-15 5.7-32.4-1.8-38.5-16.8-6-15.3 1.2-32.7 16.5-39.1 15.6-6 33 1.5 39.1 16.5 3 7.5 3 15.6-.3 22.8-3.3 7.2-9 12.9-16.2 16.2l-.6.4zm-15.6-40.6c-7.2 3-10.5 10.8-7.5 17.7 2.7 6.9 10.5 10.2 17.4 7.5l3 7.8-2.7-7.8c3.3-1.5 6-3.9 7.2-7.2 1.5-3.3 1.5-6.9 0-10.2-2.7-6.9-10.5-10.5-17.4-7.8zM924.5 636.9l-44.2-14.8 5.1-15.6 44.2 14.4zM937.1 608.6l-41.5-20.7 7.2-14.7 41.5 20.7zM950.6 581.9l-37.9-26.8 9.7-13.5 37.8 26.8zM971.3 558.1l-34.5-30.6 10.8-12.3 34.8 30.6z"/>
<path fill="#AEABDF" d="M336.3 1263.2c-.3 40-32.7 72.4-73 72.1-40-.3-72.4-32.7-72.4-73 .3-40 32.7-72.4 73-72.1s72.7 33 72.4 73z"/>
<path fill="#231F20" d="M295.7 1342.2c-79.6 20.4-164-43.9-167.6-46.6l-3.9-3 1.8-4.5c.3-.6 7.2-17.7 20.7-39.4l4.5-7.2c20.1-30.3 52.6-67.3 97.3-79.3l1.8-.6c79.6-20.4 164 43.9 167.6 46.6l3.9 3-1.8 4.5c-1.8 4.2-42.4 103.9-122.6 125.9l-1.7.6zm-155.6-54.1c17.4 12.3 88.3 57.7 152.3 41.5l1.8 6.3-.9-6.6c65.2-17.7 103.6-94 112.6-113.6-17.4-12.3-88.3-57.7-152.3-41.5l-3.3-6 1.8 6.3c-42.1 11.4-73 47.8-91.3 76.3l-6.9 11.7-.3-.3c-6.6 11.5-11.1 20.8-13.5 25.9zM293.6 1332.6c-43.6 11.1-88.3-15-100.3-58.3-12-43.9 14.1-89.5 58-101.5l1.2-.3c43.6-11.1 88.3 15 100.3 58.3 12 43.9-14.1 89.5-58 101.5l-1.2.3zm-37.8-147.5c-38.2 10.5-60.1 48.7-49.9 85.6 9.9 36.3 47.8 58.3 84.4 49l1.5 6.3-.6-6.6c36.9-10.2 58.9-48.4 48.7-85.3-9.6-36.4-47.5-58.3-84.1-49zM279.2 1276.4c-12.6 3.3-25.5-4.5-29.1-16.8-3.3-12.6 4.2-25.8 16.8-29.4 12.9-3.3 25.8 4.2 29.4 16.8 1.8 6 .9 12.6-2.4 18s-8.4 9.3-14.7 11.4zm-8.7-33.6c-5.7 1.5-9.3 7.5-7.8 13.2 1.5 5.7 7.2 9 12.9 7.5l1.8 6.3-1.5-6.3c2.7-.6 5.1-2.4 6.6-5.1 1.5-2.4 1.8-5.4.9-8.1-1.2-5.7-7.2-9-12.9-7.5zM132 1258.1l-33.6-15.6 5.7-12.1 33.3 15.7zM144.6 1237l-30.9-20.4 7.2-10.8 30.9 20.4zM157.8 1216.9l-27.6-24.6 9-9.6 27.7 24.6zM176.8 1200.1l-25-27.3 10-9.1 24.6 27.7z"/>
<circle fill="#AEABDF" cx="112.8" cy="1639.3" r="50.2"/>
<path fill="#231F20" d="M103.2 1686.4c-54.1-18.3-78.7-87.7-79.9-90.4l-1.2-3.3 2.7-1.8c.6-.3 10.8-7.5 27-15l5.4-2.4c23.1-9.9 55.9-19.2 86.5-9.3l1.2.3c54.1 18.3 78.7 87.7 79.9 90.4l1.2 3.3-2.7 2.1c-2.7 1.8-64 44.5-119 26.7l-1.1-.6zm-70-90.1c5.7 13.8 29.4 67 73 81.7l-1.5 4.5 1.8-4.2c44.8 14.4 95.8-15.3 108.4-23.4-5.7-13.8-29.4-67-73-81.7l.3-4.8-1.5 4.5c-28.8-9.3-60.4.3-82 9.6l-8.4 4.2v-.3c-7.5 3.9-13.8 7.5-17.1 9.9zM105.6 1680.1c-29.4-9.9-45.7-42.4-36.3-71.8 9.6-30 42.1-46.9 72.1-37.2l.9.3c29.4 9.9 45.7 42.4 36.3 71.8-9.6 30-42.1 46.9-72.1 36.9h-.9zm33.9-100.3c-26.1-8.4-53.2 5.7-61.3 30.9-8.1 24.9 5.7 52 30.6 60.4l-1.5 4.5 2.1-4.2c25.2 8.1 52.6-6 60.7-31.2 7.9-24.7-5.9-51.7-30.6-60.4zM118.5 1642c-8.4-3-13.2-12.3-10.5-20.7 2.7-8.7 12.3-13.5 20.7-10.8 8.7 3 13.5 12.3 10.8 21-1.2 4.2-4.2 7.5-8.1 9.6-3.9 1.8-8.4 2.4-12.9.9zm7.8-22.8c-3.9-1.2-8.4.9-9.6 4.8-1.2 3.9.9 8.1 4.5 9.3l-1.5 4.5 1.5-4.2c1.8.6 3.9.6 5.7-.6 1.8-.9 3-2.4 3.6-4.5 1.8-3.9-.3-8.1-4.2-9.3zM39.8 1575.6l-13.5-21.6 7.8-4.8 13.5 21.6zM55.1 1568.1l-10.2-23.4 8.4-3.7 10.2 23.5zM70.4 1561.8l-6.6-25 8.7-2.4 6.9 25zM87.6 1559.1l-4-25.6 9.1-1.5 3.9 25.6z"/>
<path fill="#AEABDF" d="M1213.7 1254.5c-18.3 17.1-47.2 15.9-64.3-2.4-17.1-18.3-15.9-47.2 2.4-64.3 18.3-17.1 47.2-15.9 64.3 2.4s16.3 47.1-2.4 64.3z"/>
<path fill="#231F20" d="M1161.2 1265.9c-43.3-27.9-50.2-94-50.2-96.7l-.3-3 3-1.2c.6-.3 11.1-4.2 26.7-7.2l5.1-.9c22.5-3.6 53.2-4.5 78.1 10.5l.9.6c43.3 27.6 50.2 94 50.2 96.7l.3 3-3 1.2c-2.7.9-65.8 24.9-109.9-2.4l-.9-.6zm-41.5-94.3c1.8 13.2 11.4 65.2 46.3 87.4l-2.1 3.3 2.7-3.3c36 22.2 87.4 7.2 100.3 3-1.8-13.2-11.4-65.2-46.3-87.4l1.2-4.2-2.1 3.6c-23.1-14.4-52.9-12.9-73.9-9.3l-8.4 1.8v-.3c-8.4 2.4-14.4 4.2-17.7 5.4zM1164.8 1260.8c-23.7-15-30.9-46.9-16.2-70.9 15-24.3 46.9-31.8 71.2-16.8l.6.6c23.7 15 30.9 46.9 16.2 70.9-15 24.3-46.9 31.8-71.2 16.8l-.6-.6zm51.4-80.2c-21-12.9-47.8-6.6-60.4 13.8-12.3 20.1-6.3 46.9 13.5 59.5l-2.1 3.3 2.7-3c20.4 12.6 47.5 6.3 60.1-14.1 12.3-20.2 6.3-46.9-13.8-59.5zM1184.6 1230.1c-6.9-4.5-9-13.5-4.5-20.4 4.5-7.2 13.5-9.3 20.7-4.8 7.2 4.5 9 13.8 4.8 20.7-2.1 3.3-5.4 5.7-9.3 6.6-4.2.9-8.1.3-11.7-2.1zm11.7-18.3c-3.3-2.1-7.5-.9-9.3 2.1-1.8 3-.9 7.2 2.1 9.3l-2.1 3.3 2.4-3.3c1.5.9 3.3 1.2 5.1.9s3.3-1.5 4.2-3c1.5-3 .6-7.2-2.4-9.3zM1129.9 1155l-7.2-21.9 7.8-2.7 7.2 22.2zM1145 1151.7l-3.9-22.8 8.1-1.2 3.9 22.8zM1159.7 1149.3l-.3-23.1h8.1l.6 23.1zM1175.6 1150.8l1.8-23.1 8.4.6-2.1 23.1z"/>
<circle fill="#AEABDF" cx="1190.3" cy="1783.8" r="26.4"/>
<path fill="#231F20" d="M1175.9 1812.3c-23.7-18-24.6-56.5-24.6-58.3v-1.8l1.8-.6c.3 0 6.6-1.8 15.9-3l3-.3c13.2-1.2 30.9-.3 44.8 9.6l.6.6c23.7 18 24.6 56.5 24.6 58.3v1.8l-1.8.6c-1.5.6-39.4 11.4-63.7-6.3l-.6-.6zm-19.8-56.5c.6 7.8 3.6 38.2 22.8 52.6l-1.5 1.8 1.8-1.8c19.8 14.4 50.2 8.4 58 6.3-.6-7.8-3.6-38.2-22.8-52.6l.9-2.4-1.5 2.1c-12.6-9.3-30-9.9-42.4-8.7l-4.8.6c-4.8.6-8.4 1.5-10.5 2.1zM1178.3 1809.6c-12.9-9.9-15.6-28.5-6-41.8 9.6-13.5 28.5-16.2 42.1-6.6l.3.3c12.9 9.9 15.6 28.5 6 41.8-9.6 13.5-28.5 16.2-42.1 6.6l-.3-.3zm33.3-44.2c-11.4-8.4-27.3-6-35.7 5.1-8.1 11.1-6 26.7 5.1 35.1l-1.5 1.8 1.8-1.8c11.1 8.4 27 5.7 35.4-5.4 8.2-10.7 5.8-26.3-5.1-34.8zM1190.9 1792.8c-3.6-3-4.5-8.4-1.8-12 2.7-3.9 8.4-4.8 12.3-1.8 3.9 3 4.5 8.4 1.8 12.3-1.5 1.8-3.3 3-5.7 3.3-2.4.3-4.5-.3-6.6-1.8zm7.5-9.9c-1.8-1.2-4.2-.9-5.4.9-1.2 1.8-.9 4.2.6 5.4l-1.5 2.1 1.5-1.8c.9.6 1.8.9 3 .6.9-.3 1.8-.6 2.4-1.5 1.5-2.1 1.2-4.5-.6-5.7zM1162.7 1746.8l-3-13.2 4.5-1.2 3.3 13.2zM1175.235 1731.731l1.194 13.447-4.781.425-1.194-13.447zM1180.4 1745l.6-13.5 4.8.3-.6 13.2zM1189.4 1746.5l2.1-13.5 4.8.9-2.4 13.2z"/>
<path fill="#AEABDF" d="M1184.6 1567.8c5.7 49.9-30.3 94.9-79.9 100.3-49.9 5.7-94.9-30.3-100.3-80.2-5.7-49.9 30.3-94.9 79.9-100.3 49.5-5.4 94.6 30.3 100.3 80.2z"/>
<path fill="#231F20" d="M1140.1 1668.7c-96.1 36.9-210.6-30.6-215.4-33.6l-5.4-3.3 1.5-6c.3-.9 6.3-23.1 20.1-52l4.5-9.6c20.4-40.6 55.6-91.3 109.6-112.9l2.4-.9c95.8-36.9 210.6 30.6 215.4 33.6l5.4 3.3-1.8 6c-1.5 5.4-37.5 135.5-134 174.5l-2.3.9zm-201.2-44.4c23.7 12.6 118.4 58.9 195.3 29.1l3 7.8-2.1-8.1c78.7-31.5 115.4-131.9 123.8-157.7-23.7-12.6-118.4-58.9-195.3-29.4l-5.1-6.9 3 7.5c-50.5 20.4-83.8 70-102.4 108.1l-6.9 15.6-.3-.3c-6.7 15.3-10.9 27.4-13 34.3zM1136.2 1657c-52.6 20.1-112.3-6-133.4-58-21.3-52.9 4.5-113.6 57.4-134.9l1.5-.6c52.6-20.1 112.3 6 133.4 58 21.3 52.9-4.5 113.2-57.4 134.9l-1.5.6zm-68.4-177.8c-46 18.6-67.3 69.4-49.6 113.9 17.7 43.9 67.9 65.8 112 48.7l3 7.8-1.8-8.1c44.5-18 66.1-68.8 48.1-113.3-17.4-44.2-67.6-66.2-111.7-49zM1110.1 1589.1c-15 5.7-32.4-1.8-38.5-16.8-6-15.3 1.2-32.7 16.5-39.1 15.6-6 33 1.5 39.1 16.5 3 7.5 3 15.6-.3 22.8-3.3 7.2-9 12.9-16.2 16.2l-.6.4zm-15.6-40.5c-7.2 3-10.5 10.8-7.5 17.7 2.7 6.9 10.5 10.2 17.4 7.5l3 7.8-2.7-7.8c3.3-1.5 6-3.9 7.2-7.2 1.5-3.3 1.5-6.9 0-10.2-2.7-6.9-10.5-10.2-17.4-7.8zM924.5 1588.2l-44.2-14.7 5.1-15.6 44.2 14.4zM937.1 1560.3l-41.5-21.1 7.2-14.7 41.5 21.1zM950.6 1533.2l-37.9-26.7 9.7-13.5 37.8 26.7zM971.3 1509.5l-34.5-30.6 10.8-12.3 34.8 30.6zM246.8 223.8l16.2-3-13.5-6zM290.6 388.1l12.9-13.2-6.3-8.4-7.5 2.1zM272.6 312.7s4.5-.6 6.6-1.8c2.1-.9.6 9.6.6 9.6l-7.2-7.8zM1216.8 222.6l10.2 3-6.9-9.6zM1164.8 299.5s9.3 6 14.4 7.8c5.4 1.8-16.2 5.4-16.2 5.4l1.8-13.2zM100.2 716.5s11.4 4.8 16.8 6c5.4 1.2-12.9 9.6-12.9 9.6l-3.9-14.7v-.9zM133.8 620.6l15.3 6.3-5.1-14.4zM1052.4 507.4l4.5 11.7 15.7-8.4zM1099.6 623.3s5.4-.9 8.4-3.3c3.3-2.4.6 12.6.6 12.6l-9-9.3zM1125.7 692.1l17.2-7.5-6.7 29.2zM1178.9 852.5s3.6 3.3 5.4 3.9c1.8.6-7.8 3.3-7.8 3.3l2.4-7.2zM1213.1 807.2l-.3 3.6 3.7 1.8v-4.5zM1167.2 1252.4s5.7 3.6 7.2 4.5c1.5.9-12.3 6.6-12.3 6.6l5.1-11.1zM1219.5 1169.2l-1.2 6.9 7.8-1.8zM1057.5 1453.6l11.8 13.6-15.4 5.1zM1102.6 1574.4s5.1-1.8 5.7-2.7c.6-.9 2.4 13.8 2.4 13.8l-8.1-11.1zM1125.4 1643.5s12.3-4.5 13.5-5.4c1.2-.9.6 24.3.6 24.3l-4.8.6-9.3-19.5zM1178.3 1803.3s4.2 3.9 6.6 4.8c2.4.9-8.4 3.3-8.4 3.3l1.8-8.1zM1212.8 1758.5l.3 3.3 3.7 1.5-.3-3.9zM138 1565.7l3.6 9.6 5.1-2.7-3-5.7zM105.6 1669.9s6 2.4 7.5 2.4l-9.3 10.8 1.8-13.2zM120.6 1633s1.8.6 4.2.3c2.4-.3-5.1 3.9-5.1 3.9v-5.1l.9.9zM286.1 1320.9s15-3.9 17.1-5.4c2.1-1.5-7.8 23.4-7.8 23.4l-9.3-18zM271.4 1263.8s5.7.6 9.6-3c3.9-3.6-.6 9.9-.6 9.9l-8.1-.3-.9-6.6zM248.9 1167.1l.3 7.8 10.5-.6-7.2-9.6-4.2 3.3"/>
<path fill="#231F20" d="M246.5 861.2l4.8 3.7 2.1-2.8-5.1-1.5zM285.2 921s3.6-2.4 4.8-3.3c1.2-.9 2.4 8.4 2.4 8.4l-5.7 3-1.5-8.1zM272.6 898.5l1.2-.9 1.8 3.6-2.7-.6z"/>
</svg>

