<?xml version="1.0" encoding="utf-8"?>
<!-- Generator: Adobe Illustrator 18.1.0, SVG Export Plug-In . SVG Version: 6.00 Build 0)  -->
<svg version="1.1" id="Layer_1" xmlns="http://www.w3.org/2000/svg" xmlns:xlink="http://www.w3.org/1999/xlink" x="0px" y="0px"
	 viewBox="0 0 1300 2000" enable-background="new 0 0 1300 2000" xml:space="preserve">
<g>
	<g>
		<g>
			<path fill="#AEABDF" d="M336.3,311.8c-0.3,40-32.7,72.4-73,72.4c-40-0.3-72.4-32.7-72.4-73s32.7-72.4,73-72.4
				C304.1,239.1,336.6,271.6,336.3,311.8z"/>
			<g>
				<g>
					<path fill="#231F20" d="M295.7,390.8c-79.6,20.4-164-43.9-167.6-46.6l-3.9-3l1.8-4.5c0.3-0.6,7.2-17.7,20.7-39.4l4.5-7.2l0,0
						c20.1-30.3,52.6-67.3,97.3-79.3l1.8-0.6c79.6-20.4,164,43.9,167.6,46.6l3.9,3l-1.8,4.5c-1.8,4.2-42.4,103.9-122.6,125.9
						L295.7,390.8z M140.1,336.8c17.4,12.3,88.3,57.7,152.3,41.5l1.8,6.3l-0.9-6.6c65.2-17.7,103.6-94,112.6-113.6
						c-17.4-12.3-88.3-57.7-152.3-41.5l-3.3-6l1.8,6.3c-42.1,11.4-73,47.8-91.3,76.3l-6.9,11.7l-0.3-0.3
						C147,322.3,142.5,331.6,140.1,336.8z"/>
				</g>
				<g>
					<path fill="#231F20" d="M293.6,381.2c-43.6,11.1-88.3-15-100.3-58.3c-12-43.9,14.1-89.5,58-101.5l1.2-0.3
						c43.6-11.1,88.3,15,100.3,58.3c12,43.9-14.1,89.5-58,101.5L293.6,381.2z M255.8,233.7c-38.2,10.5-60.1,48.7-49.9,85.6
						c9.9,36.3,47.8,58.3,84.4,49l1.5,6.3l-0.6-6.6c36.9-10.2,58.9-48.4,48.7-85.3C330.3,246.3,292.4,224.4,255.8,233.7z"/>
				</g>
				<g>
					<path fill="#231F20" d="M279.2,325c-12.6,3.3-25.5-4.5-29.1-16.8c-3.3-12.6,4.2-25.8,16.8-29.4l0,0
						c12.9-3.3,25.8,4.2,29.4,16.8c1.8,6,0.9,12.6-2.4,18C290.6,319,285.5,322.9,279.2,325L279.2,325z M270.5,291.1
						c-5.7,1.5-9.3,7.5-7.8,13.2c1.5,5.7,7.2,9,12.9,7.5l1.8,6.3l-1.5-6.3c2.7-0.6,5.1-2.4,6.6-5.1c1.5-2.4,1.8-5.4,0.9-8.1
						C282.2,293.2,276.2,289.9,270.5,291.1z"/>
				</g>
				<g>
					<polygon fill="#231F20" points="132,306.7 98.4,291.1 104.1,279.1 137.4,294.7 					"/>
				</g>
				<g>
					<polygon fill="#231F20" points="144.6,285.7 113.7,265.3 120.9,254.4 151.8,274.6 					"/>
				</g>
				<g>
					<polygon fill="#231F20" points="157.8,265.6 130.2,240.9 139.2,231.3 166.9,255.9 					"/>
				</g>
				<g>
					<polygon fill="#231F20" points="176.8,248.7 151.8,221.4 161.8,212.4 186.4,240 					"/>
				</g>
			</g>
		</g>
	</g>
	<g>
		<g>
			<circle fill="#AEABDF" cx="112.8" cy="687.9" r="50.2"/>
			<g>
				<g>
					<path fill="#231F20" d="M103.2,735.1c-54.1-18.3-78.7-87.7-79.9-90.4l-1.2-3.3l2.7-1.8c0.6-0.3,10.8-7.5,27-15l5.4-2.4l0,0
						c23.1-9.9,55.9-19.2,86.5-9.3l1.2,0.3c54.1,18.3,78.7,87.7,79.9,90.4l1.2,3.3l-2.7,1.8c-2.7,1.8-64,44.5-119,26.7L103.2,735.1z
						 M33.2,644.7c5.7,13.8,29.4,67,73,81.7l-1.5,4.5l1.8-4.2c44.8,14.4,95.8-15.3,108.4-23.4c-5.7-13.8-29.4-67-73-81.7l0.3-4.8
						l-1.5,4.5c-28.8-9.3-60.4,0.3-82,9.6l-8.4,4.2v-0.3C42.8,639,36.5,642.6,33.2,644.7z"/>
				</g>
				<g>
					<path fill="#231F20" d="M105.6,728.5c-29.4-9.9-45.7-42.4-36.3-71.8c9.6-30,42.1-46.9,72.1-37.2l0.9,0.3
						c29.4,9.9,45.7,42.4,36.3,71.8c-9.6,30-42.1,46.9-72.1,37.2L105.6,728.5z M139.5,628.4c-26.1-8.4-53.2,5.7-61.3,30.9
						c-8.1,24.9,5.7,52,30.6,60.4l-1.5,4.5l2.1-4.2c25.2,8.1,52.6-6,60.7-31.2C178,664.2,164.2,636.9,139.5,628.4z"/>
				</g>
				<g>
					<path fill="#231F20" d="M118.5,690.6c-8.4-3-13.2-12.3-10.5-20.7c2.7-8.7,12.3-13.5,20.7-10.8l0,0c8.7,3,13.5,12.3,10.8,21
						c-1.2,4.2-4.2,7.5-8.1,9.6S123,692.1,118.5,690.6L118.5,690.6z M126.3,667.8c-3.9-1.2-8.4,0.9-9.6,4.8
						c-1.2,3.9,0.9,8.1,4.5,9.3l-1.5,4.5l1.5-4.2c1.8,0.6,3.9,0.6,5.7-0.6s3-2.4,3.6-4.5C132.3,673.2,130.2,669,126.3,667.8z"/>
				</g>
				<g>
					<polygon fill="#231F20" points="39.8,624.2 26.3,602.6 34.1,597.5 47.6,619.4 					"/>
				</g>
				<g>
					<polygon fill="#231F20" points="55.1,616.7 44.9,593.3 53.3,589.7 63.5,613.1 					"/>
				</g>
				<g>
					<polygon fill="#231F20" points="70.4,610.1 63.8,585.5 72.5,583.1 79.4,607.7 					"/>
				</g>
				<g>
					<polygon fill="#231F20" points="87.6,607.4 83.6,582.2 92.7,580.7 96.6,606.2 					"/>
				</g>
			</g>
		</g>
	</g>
	<g>
		<g>
			<circle fill="#AEABDF" cx="265.7" cy="900.6" r="32.1"/>
			<g>
				<g>
					<path fill="#231F20" d="M291.8,929.1c-30.9,19.2-75.4,3.3-77.2,2.7l-2.1-0.6l0.3-2.1c0-0.3,0.6-8.4,3.6-19.5l0.9-3.6l0,0
						c4.5-15.3,13.2-35.4,30.6-46.6l0.6-0.6c30.9-19.2,75.4-3.3,77.2-2.7l2.1,0.6l-0.3,2.1c-0.3,2.1-4.2,49.9-35.1,69.7L291.8,929.1
						z M218.5,926.7c9,3,45.1,12.6,70-3l1.5,2.4l-1.2-2.7c25.2-16.2,31.5-53.8,32.4-63.1c-9-3-45.1-12.6-70,3l-2.1-2.1l1.5,2.4
						c-16.2,10.5-24.3,30-28.5,44.5l-1.5,6l0,0C219.7,919.8,218.8,924.3,218.5,926.7z"/>
				</g>
				<g>
					<path fill="#231F20" d="M289.7,925.2c-16.8,10.5-39.7,5.4-50.2-11.4c-11.1-17.1-6-39.7,11.1-50.8l0.6-0.3
						c16.8-10.5,39.7-5.4,50.2,11.4c11.1,17.1,6,39.7-11.1,50.8L289.7,925.2z M254,867.9c-14.7,9.6-18.9,28.5-9.6,43
						c9,14.1,27.9,18.3,42.4,9.6l1.5,2.4l-1.2-2.7c14.4-9.3,18.3-28.2,9.3-42.7C287,863.1,268.1,858.8,254,867.9z"/>
				</g>
				<g>
					<path fill="#231F20" d="M275.9,903.3c-4.8,3-11.4,1.5-14.4-3.3c-3.3-4.8-1.8-11.4,3.3-14.7l0,0c5.1-3.3,11.7-1.8,14.7,3.3
						c1.5,2.4,2.1,5.1,1.5,8.1C280.1,899.1,278.6,901.5,275.9,903.3L275.9,903.3z M267.8,890.1c-2.4,1.5-3,4.5-1.5,6.6
						c1.5,2.1,4.5,3,6.6,1.5l1.5,2.4l-1.5-2.4c1.2-0.6,1.8-1.8,2.1-3c0.3-1.2,0-2.4-0.6-3.6C272.9,889.5,269.9,888.6,267.8,890.1z"
						/>
				</g>
				<g>
					<polygon fill="#231F20" points="211,915.3 194.8,913.2 195.7,907.2 211.9,909.6 					"/>
				</g>
				<g>
					
						<rect x="198.2" y="896.5" transform="matrix(0.9618 0.2736 -0.2736 0.9618 253.9919 -22.1727)" fill="#231F20" width="16.5" height="6"/>
				</g>
				<g>
					<polygon fill="#231F20" points="216.7,894.3 201.7,887.7 204.1,882.3 219.1,888.9 					"/>
				</g>
				<g>
					
						<rect x="208.4" y="875.1" transform="matrix(0.8616 0.5076 -0.5076 0.8616 475.699 11.5435)" fill="#231F20" width="16.5" height="6"/>
				</g>
			</g>
		</g>
	</g>
	<g>
		<g>
			<path fill="#AEABDF" d="M1213.7,302.8c-18.3,17.1-47.2,15.9-64.3-2.4c-17.1-18.3-15.9-47.2,2.4-64.3
				c18.3-17.1,47.2-15.9,64.3,2.4C1233.3,257.1,1232.4,286,1213.7,302.8z"/>
			<g>
				<g>
					<path fill="#231F20" d="M1161.2,314.5c-43.3-27.9-50.2-94-50.2-96.7l-0.3-3l3-1.2c0.6-0.3,11.1-4.2,26.7-7.2l5.1-0.9l0,0
						c22.5-3.6,53.2-4.5,78.1,10.5l0.9,0.6c43.3,27.6,50.2,94,50.2,96.7l0.3,3l-3,1.2c-2.7,0.9-65.8,24.9-109.9-2.4L1161.2,314.5z
						 M1119.7,220.2c1.8,13.2,11.4,65.2,46.3,87.4l-2.1,3.3l2.7-3.3c36,22.2,87.4,7.2,100.3,3c-1.8-13.2-11.4-65.2-46.3-87.4
						l1.2-4.2l-2.1,3.6c-23.1-14.4-52.9-12.9-73.9-9.3l-8.4,1.8v0.3C1129,217.2,1123,219,1119.7,220.2z"/>
				</g>
				<g>
					<path fill="#231F20" d="M1164.8,309.4c-23.7-15-30.9-46.9-16.2-70.9c15-24.3,46.9-31.8,71.2-16.8l0.6,0.6
						c23.7,15,30.9,46.9,16.2,70.9c-15,24.3-46.9,31.8-71.2,16.8L1164.8,309.4z M1216.2,229.2c-21-12.9-47.8-6.6-60.4,13.8
						c-12.3,20.1-6.3,46.9,13.5,59.5l-2.1,3.3l2.7-3c20.4,12.6,47.5,6.3,60.1-14.1C1242.3,268.6,1236.3,241.8,1216.2,229.2z"/>
				</g>
				<g>
					<path fill="#231F20" d="M1184.6,278.8c-6.9-4.5-9-13.5-4.5-20.4c4.5-7.2,13.5-9.3,20.7-4.8l0,0c7.2,4.5,9,13.8,4.8,20.7
						c-2.1,3.3-5.4,5.7-9.3,6.6C1192.4,281.8,1188.2,280.9,1184.6,278.8L1184.6,278.8z M1196.3,260.5c-3.3-2.1-7.5-0.9-9.3,2.1
						c-1.8,3-0.9,7.2,2.1,9.3l-2.1,3.3l2.4-3.3c1.5,0.9,3.3,1.2,5.1,0.9s3.3-1.5,4.2-3C1200.2,266.5,1199.3,262.6,1196.3,260.5z"/>
				</g>
				<g>
					<polygon fill="#231F20" points="1129.9,203.7 1122.7,181.7 1130.5,179 1137.7,201.3 					"/>
				</g>
				<g>
					<polygon fill="#231F20" points="1145,200.4 1141.1,177.5 1149.2,176.3 1153.1,199.2 					"/>
				</g>
				<g>
					<polygon fill="#231F20" points="1159.7,198 1159.4,174.8 1167.5,174.5 1168.1,198 					"/>
				</g>
				<g>
					<polygon fill="#231F20" points="1175.6,199.5 1177.4,176.3 1185.8,176.9 1183.7,200.1 					"/>
				</g>
			</g>
		</g>
	</g>
	<g>
		<g>
			<circle fill="#AEABDF" cx="1190.3" cy="832.1" r="26.4"/>
			<g>
				<g>
					<path fill="#231F20" d="M1175.9,860.9c-23.7-18-24.6-56.5-24.6-58.3v-1.8l1.8-0.6c0.3,0,6.6-1.8,15.9-3l3-0.3l0,0
						c13.2-1.2,30.9-0.3,44.8,9.6l0.6,0.6c23.7,18,24.6,56.8,24.6,58.3v1.8l-1.8,0.6c-1.5,0.6-39.4,11.4-63.7-6.3L1175.9,860.9z
						 M1156.1,804.5c0.6,7.8,3.6,38.2,22.8,52.9l-1.5,1.8l1.8-1.8c19.8,14.4,50.2,8.4,58,6.3c-0.6-7.8-3.6-38.2-22.8-52.9l0.9-2.4
						l-1.5,1.8c-12.6-9.3-30-9.9-42.4-8.7l-4.8,0.6l0,0C1161.8,803,1158.2,803.9,1156.1,804.5z"/>
				</g>
				<g>
					<path fill="#231F20" d="M1178.3,858.2c-12.9-9.9-15.6-28.5-6-41.8c9.6-13.5,28.5-16.2,42.1-6.6l0.3,0.3
						c12.9,9.9,15.6,28.5,6,41.8c-9.6,13.5-28.5,16.2-42.1,6.6L1178.3,858.2z M1211.6,814.1c-11.4-8.4-27.3-6-35.7,5.1
						c-8.1,11.1-6,26.7,5.1,35.1l-1.5,1.8l1.8-1.8c11.1,8.4,27,5.7,35.4-5.4C1224.9,838.1,1222.5,822.2,1211.6,814.1z"/>
				</g>
				<g>
					<path fill="#231F20" d="M1190.9,841.4c-3.6-3-4.5-8.4-1.8-12c2.7-3.9,8.4-4.8,12.3-1.8l0,0c3.9,3,4.5,8.4,1.8,12.3
						c-1.5,1.8-3.3,3-5.7,3.3C1195.1,843.5,1193,842.9,1190.9,841.4L1190.9,841.4z M1198.4,831.2c-1.8-1.2-4.2-0.9-5.4,0.9
						c-1.2,1.8-0.9,4.2,0.6,5.4l-1.5,1.8l1.5-1.8c0.9,0.6,1.8,0.9,3,0.6c0.9-0.3,1.8-0.6,2.4-1.5
						C1200.5,835.1,1200.2,832.7,1198.4,831.2z"/>
				</g>
				<g>
					<polygon fill="#231F20" points="1162.7,795.5 1159.7,782.2 1164.2,781 1167.5,794.3 					"/>
				</g>
				<g>
					
						<rect x="1166.7" y="784.8" transform="matrix(8.846192e-02 0.9961 -0.9961 8.846192e-02 1853.8113 -451.2444)" fill="#231F20" width="13.5" height="4.8"/>
				</g>
				<g>
					<polygon fill="#231F20" points="1180.4,793.4 1181,780.1 1185.8,780.4 1185.2,793.7 					"/>
				</g>
				<g>
					<polygon fill="#231F20" points="1189.4,794.9 1191.5,781.6 1196.3,782.5 1193.9,795.8 					"/>
				</g>
			</g>
		</g>
	</g>
	<g>
		<g>
			<path fill="#AEABDF" d="M1184.6,616.4c5.7,49.9-30.3,94.9-79.9,100.3c-49.9,5.7-94.9-30.3-100.3-79.9
				c-5.7-49.9,30.3-94.9,79.9-100.3C1133.8,530.8,1178.9,566.6,1184.6,616.4z"/>
			<g>
				<g>
					<path fill="#231F20" d="M1140.1,717.4c-96.1,36.9-210.6-30.6-215.4-33.6l-5.4-3.3l1.5-6c0.3-0.9,6.3-23.1,20.1-52l4.5-9.6l0,0
						c20.4-40.6,55.6-91.3,109.6-112.9l2.4-0.9c95.8-36.9,210.6,30.6,215.4,33.6l5.4,3.3l-1.8,6c-1.5,5.4-37.5,135.5-134,174.5
						L1140.1,717.4z M938.9,672.9c23.7,12.6,118.4,58.9,195.3,29.1l3,7.8l-2.1-8.1c78.7-31.5,115.4-131.9,123.8-157.7
						c-23.7-12.6-118.4-58.9-195.3-29.4l-5.1-6.9l3,7.5c-50.5,20.4-83.8,70-102.4,108.1l-6.9,15.6l-0.3-0.3
						C945.2,654,941,666,938.9,672.9z"/>
				</g>
				<g>
					<path fill="#231F20" d="M1136.2,705.6c-52.6,20.1-112.3-5.7-133.4-58c-21.3-52.9,4.5-113.6,57.4-134.9l1.5-0.6
						c52.6-20.1,112.3,5.7,133.4,58c21.3,52.9-4.5,113.3-57.4,134.9L1136.2,705.6z M1067.8,527.8c-46,18.6-67.3,69.4-49.6,113.9
						c17.7,43.9,67.9,65.8,112,48.7l3,7.8l-1.8-8.1c44.5-18,66.1-68.8,48.1-113.3C1162.1,532.6,1111.9,510.7,1067.8,527.8z"/>
				</g>
				<g>
					<path fill="#231F20" d="M1110.1,637.8c-15,5.7-32.4-1.8-38.5-16.8c-6-15.3,1.2-32.7,16.5-39.1l0,0c15.6-6,33,1.5,39.1,16.5
						c3,7.5,3,15.6-0.3,22.8c-3.3,7.2-9,12.9-16.2,16.2L1110.1,637.8z M1094.5,597.2c-7.2,3-10.5,10.8-7.5,17.7
						c2.7,6.9,10.5,10.2,17.4,7.5l3,7.8l-2.7-7.8c3.3-1.5,6-3.9,7.2-7.2c1.5-3.3,1.5-6.9,0-10.2
						C1109.2,598.1,1101.4,594.5,1094.5,597.2z"/>
				</g>
				<g>
					<polygon fill="#231F20" points="924.5,636.9 880.3,622.1 885.4,606.5 929.6,620.9 					"/>
				</g>
				<g>
					<polygon fill="#231F20" points="937.1,608.6 895.6,587.9 902.8,573.2 944.3,593.9 					"/>
				</g>
				<g>
					<polygon fill="#231F20" points="950.6,581.9 912.7,555.1 922.4,541.6 960.2,568.4 					"/>
				</g>
				<g>
					<polygon fill="#231F20" points="971.3,558.1 936.8,527.5 947.6,515.2 982.4,545.8 					"/>
				</g>
			</g>
		</g>
	</g>
</g>
<g>
	<g>
		<path fill="#AEABDF" d="M336.3,1263.2c-0.3,40-32.7,72.4-73,72.1c-40-0.3-72.4-32.7-72.4-73c0.3-40,32.7-72.4,73-72.1
			S336.6,1223.2,336.3,1263.2z"/>
		<g>
			<g>
				<path fill="#231F20" d="M295.7,1342.2c-79.6,20.4-164-43.9-167.6-46.6l-3.9-3l1.8-4.5c0.3-0.6,7.2-17.7,20.7-39.4l4.5-7.2l0,0
					c20.1-30.3,52.6-67.3,97.3-79.3l1.8-0.6c79.6-20.4,164,43.9,167.6,46.6l3.9,3l-1.8,4.5c-1.8,4.2-42.4,103.9-122.6,125.9
					L295.7,1342.2z M140.1,1288.1c17.4,12.3,88.3,57.7,152.3,41.5l1.8,6.3l-0.9-6.6c65.2-17.7,103.6-94,112.6-113.6
					c-17.4-12.3-88.3-57.7-152.3-41.5l-3.3-6l1.8,6.3c-42.1,11.4-73,47.8-91.3,76.3l-6.9,11.7l-0.3-0.3
					C147,1273.7,142.5,1283,140.1,1288.1z"/>
			</g>
			<g>
				<path fill="#231F20" d="M293.6,1332.6c-43.6,11.1-88.3-15-100.3-58.3c-12-43.9,14.1-89.5,58-101.5l1.2-0.3
					c43.6-11.1,88.3,15,100.3,58.3c12,43.9-14.1,89.5-58,101.5L293.6,1332.6z M255.8,1185.1c-38.2,10.5-60.1,48.7-49.9,85.6
					c9.9,36.3,47.8,58.3,84.4,49l1.5,6.3l-0.6-6.6c36.9-10.2,58.9-48.4,48.7-85.3C330.3,1197.7,292.4,1175.8,255.8,1185.1z"/>
			</g>
			<g>
				<path fill="#231F20" d="M279.2,1276.4c-12.6,3.3-25.5-4.5-29.1-16.8c-3.3-12.6,4.2-25.8,16.8-29.4l0,0
					c12.9-3.3,25.8,4.2,29.4,16.8c1.8,6,0.9,12.6-2.4,18C290.6,1270.4,285.5,1274.3,279.2,1276.4L279.2,1276.4z M270.5,1242.8
					c-5.7,1.5-9.3,7.5-7.8,13.2c1.5,5.7,7.2,9,12.9,7.5l1.8,6.3l-1.5-6.3c2.7-0.6,5.1-2.4,6.6-5.1c1.5-2.4,1.8-5.4,0.9-8.1
					C282.2,1244.6,276.2,1241.3,270.5,1242.8z"/>
			</g>
			<g>
				<polygon fill="#231F20" points="132,1258.1 98.4,1242.5 104.1,1230.4 137.4,1246.1 				"/>
			</g>
			<g>
				<polygon fill="#231F20" points="144.6,1237 113.7,1216.6 120.9,1205.8 151.8,1226.2 				"/>
			</g>
			<g>
				<polygon fill="#231F20" points="157.8,1216.9 130.2,1192.3 139.2,1182.7 166.9,1207.3 				"/>
			</g>
			<g>
				<polygon fill="#231F20" points="176.8,1200.1 151.8,1172.8 161.8,1163.7 186.4,1191.4 				"/>
			</g>
		</g>
	</g>
</g>
<g>
	<g>
		<circle fill="#AEABDF" cx="112.8" cy="1639.3" r="50.2"/>
		<g>
			<g>
				<path fill="#231F20" d="M103.2,1686.4c-54.1-18.3-78.7-87.7-79.9-90.4l-1.2-3.3l2.7-1.8c0.6-0.3,10.8-7.5,27-15l5.4-2.4l0,0
					c23.1-9.9,55.9-19.2,86.5-9.3l1.2,0.3c54.1,18.3,78.7,87.7,79.9,90.4l1.2,3.3l-2.7,2.1c-2.7,1.8-64,44.5-119,26.7L103.2,1686.4z
					 M33.2,1596.3c5.7,13.8,29.4,67,73,81.7l-1.5,4.5l1.8-4.2c44.8,14.4,95.8-15.3,108.4-23.4c-5.7-13.8-29.4-67-73-81.7l0.3-4.8
					l-1.5,4.5c-28.8-9.3-60.4,0.3-82,9.6l-8.4,4.2v-0.3C42.8,1590.3,36.5,1593.9,33.2,1596.3z"/>
			</g>
			<g>
				<path fill="#231F20" d="M105.6,1680.1c-29.4-9.9-45.7-42.4-36.3-71.8c9.6-30,42.1-46.9,72.1-37.2l0.9,0.3
					c29.4,9.9,45.7,42.4,36.3,71.8c-9.6,30-42.1,46.9-72.1,36.9H105.6z M139.5,1579.8c-26.1-8.4-53.2,5.7-61.3,30.9
					c-8.1,24.9,5.7,52,30.6,60.4l-1.5,4.5l2.1-4.2c25.2,8.1,52.6-6,60.7-31.2C178,1615.5,164.2,1588.5,139.5,1579.8z"/>
			</g>
			<g>
				<path fill="#231F20" d="M118.5,1642c-8.4-3-13.2-12.3-10.5-20.7c2.7-8.7,12.3-13.5,20.7-10.8l0,0c8.7,3,13.5,12.3,10.8,21
					c-1.2,4.2-4.2,7.5-8.1,9.6C127.5,1642.9,123,1643.5,118.5,1642L118.5,1642z M126.3,1619.2c-3.9-1.2-8.4,0.9-9.6,4.8
					c-1.2,3.9,0.9,8.1,4.5,9.3l-1.5,4.5l1.5-4.2c1.8,0.6,3.9,0.6,5.7-0.6c1.8-0.9,3-2.4,3.6-4.5
					C132.3,1624.6,130.2,1620.4,126.3,1619.2z"/>
			</g>
			<g>
				<polygon fill="#231F20" points="39.8,1575.6 26.3,1554 34.1,1549.2 47.6,1570.8 				"/>
			</g>
			<g>
				<polygon fill="#231F20" points="55.1,1568.1 44.9,1544.7 53.3,1541 63.5,1564.5 				"/>
			</g>
			<g>
				<polygon fill="#231F20" points="70.4,1561.8 63.8,1536.8 72.5,1534.4 79.4,1559.4 				"/>
			</g>
			<g>
				<polygon fill="#231F20" points="87.6,1559.1 83.6,1533.5 92.7,1532 96.6,1557.6 				"/>
			</g>
		</g>
	</g>
</g>
<g>
	<g>
		<path fill="#AEABDF" d="M1213.7,1254.5c-18.3,17.1-47.2,15.9-64.3-2.4c-17.1-18.3-15.9-47.2,2.4-64.3
			c18.3-17.1,47.2-15.9,64.3,2.4S1232.4,1237.3,1213.7,1254.5z"/>
		<g>
			<g>
				<path fill="#231F20" d="M1161.2,1265.9c-43.3-27.9-50.2-94-50.2-96.7l-0.3-3l3-1.2c0.6-0.3,11.1-4.2,26.7-7.2l5.1-0.9l0,0
					c22.5-3.6,53.2-4.5,78.1,10.5l0.9,0.6c43.3,27.6,50.2,94,50.2,96.7l0.3,3l-3,1.2c-2.7,0.9-65.8,24.9-109.9-2.4L1161.2,1265.9z
					 M1119.7,1171.6c1.8,13.2,11.4,65.2,46.3,87.4l-2.1,3.3l2.7-3.3c36,22.2,87.4,7.2,100.3,3c-1.8-13.2-11.4-65.2-46.3-87.4
					l1.2-4.2l-2.1,3.6c-23.1-14.4-52.9-12.9-73.9-9.3l-8.4,1.8v-0.3C1129,1168.6,1123,1170.4,1119.7,1171.6z"/>
			</g>
			<g>
				<path fill="#231F20" d="M1164.8,1260.8c-23.7-15-30.9-46.9-16.2-70.9c15-24.3,46.9-31.8,71.2-16.8l0.6,0.6
					c23.7,15,30.9,46.9,16.2,70.9c-15,24.3-46.9,31.8-71.2,16.8L1164.8,1260.8z M1216.2,1180.6c-21-12.9-47.8-6.6-60.4,13.8
					c-12.3,20.1-6.3,46.9,13.5,59.5l-2.1,3.3l2.7-3c20.4,12.6,47.5,6.3,60.1-14.1C1242.3,1219.9,1236.3,1193.2,1216.2,1180.6z"/>
			</g>
			<g>
				<path fill="#231F20" d="M1184.6,1230.1c-6.9-4.5-9-13.5-4.5-20.4c4.5-7.2,13.5-9.3,20.7-4.8l0,0c7.2,4.5,9,13.8,4.8,20.7
					c-2.1,3.3-5.4,5.7-9.3,6.6C1192.1,1233.1,1188.2,1232.5,1184.6,1230.1L1184.6,1230.1z M1196.3,1211.8c-3.3-2.1-7.5-0.9-9.3,2.1
					c-1.8,3-0.9,7.2,2.1,9.3l-2.1,3.3l2.4-3.3c1.5,0.9,3.3,1.2,5.1,0.9s3.3-1.5,4.2-3C1200.2,1218.1,1199.3,1213.9,1196.3,1211.8z"
					/>
			</g>
			<g>
				<polygon fill="#231F20" points="1129.9,1155 1122.7,1133.1 1130.5,1130.4 1137.7,1152.6 				"/>
			</g>
			<g>
				<polygon fill="#231F20" points="1145,1151.7 1141.1,1128.9 1149.2,1127.7 1153.1,1150.5 				"/>
			</g>
			<g>
				<polygon fill="#231F20" points="1159.7,1149.3 1159.4,1126.2 1167.5,1126.2 1168.1,1149.3 				"/>
			</g>
			<g>
				<polygon fill="#231F20" points="1175.6,1150.8 1177.4,1127.7 1185.8,1128.3 1183.7,1151.4 				"/>
			</g>
		</g>
	</g>
</g>
<g>
	<g>
		<circle fill="#AEABDF" cx="1190.3" cy="1783.8" r="26.4"/>
		<g>
			<g>
				<path fill="#231F20" d="M1175.9,1812.3c-23.7-18-24.6-56.5-24.6-58.3v-1.8l1.8-0.6c0.3,0,6.6-1.8,15.9-3l3-0.3l0,0
					c13.2-1.2,30.9-0.3,44.8,9.6l0.6,0.6c23.7,18,24.6,56.5,24.6,58.3v1.8l-1.8,0.6c-1.5,0.6-39.4,11.4-63.7-6.3L1175.9,1812.3z
					 M1156.1,1755.8c0.6,7.8,3.6,38.2,22.8,52.6l-1.5,1.8l1.8-1.8c19.8,14.4,50.2,8.4,58,6.3c-0.6-7.8-3.6-38.2-22.8-52.6l0.9-2.4
					l-1.5,2.1c-12.6-9.3-30-9.9-42.4-8.7l-4.8,0.6l0,0C1161.8,1754.3,1158.2,1755.2,1156.1,1755.8z"/>
			</g>
			<g>
				<path fill="#231F20" d="M1178.3,1809.6c-12.9-9.9-15.6-28.5-6-41.8c9.6-13.5,28.5-16.2,42.1-6.6l0.3,0.3
					c12.9,9.9,15.6,28.5,6,41.8c-9.6,13.5-28.5,16.2-42.1,6.6L1178.3,1809.6z M1211.6,1765.4c-11.4-8.4-27.3-6-35.7,5.1
					c-8.1,11.1-6,26.7,5.1,35.1l-1.5,1.8l1.8-1.8c11.1,8.4,27,5.7,35.4-5.4C1224.9,1789.5,1222.5,1773.9,1211.6,1765.4z"/>
			</g>
			<g>
				<path fill="#231F20" d="M1190.9,1792.8c-3.6-3-4.5-8.4-1.8-12c2.7-3.9,8.4-4.8,12.3-1.8l0,0c3.9,3,4.5,8.4,1.8,12.3
					c-1.5,1.8-3.3,3-5.7,3.3C1195.1,1794.9,1193,1794.3,1190.9,1792.8L1190.9,1792.8z M1198.4,1782.9c-1.8-1.2-4.2-0.9-5.4,0.9
					c-1.2,1.8-0.9,4.2,0.6,5.4l-1.5,2.1l1.5-1.8c0.9,0.6,1.8,0.9,3,0.6c0.9-0.3,1.8-0.6,2.4-1.5
					C1200.5,1786.5,1200.2,1784.1,1198.4,1782.9z"/>
			</g>
			<g>
				<polygon fill="#231F20" points="1162.7,1746.8 1159.7,1733.6 1164.2,1732.4 1167.5,1745.6 				"/>
			</g>
			<g>
				
					<rect x="1166.7" y="1736.2" transform="matrix(8.846216e-02 0.9961 -0.9961 8.846216e-02 2801.4546 415.9929)" fill="#231F20" width="13.5" height="4.8"/>
			</g>
			<g>
				<polygon fill="#231F20" points="1180.4,1745 1181,1731.5 1185.8,1731.8 1185.2,1745 				"/>
			</g>
			<g>
				<polygon fill="#231F20" points="1189.4,1746.5 1191.5,1733 1196.3,1733.9 1193.9,1747.1 				"/>
			</g>
		</g>
	</g>
</g>
<g>
	<g>
		<path fill="#AEABDF" d="M1184.6,1567.8c5.7,49.9-30.3,94.9-79.9,100.3c-49.9,5.7-94.9-30.3-100.3-80.2
			c-5.7-49.9,30.3-94.9,79.9-100.3C1133.8,1482.2,1178.9,1517.9,1184.6,1567.8z"/>
		<g>
			<g>
				<path fill="#231F20" d="M1140.1,1668.7c-96.1,36.9-210.6-30.6-215.4-33.6l-5.4-3.3l1.5-6c0.3-0.9,6.3-23.1,20.1-52l4.5-9.6l0,0
					c20.4-40.6,55.6-91.3,109.6-112.9l2.4-0.9c95.8-36.9,210.6,30.6,215.4,33.6l5.4,3.3l-1.8,6c-1.5,5.4-37.5,135.5-134,174.5
					L1140.1,1668.7z M938.9,1624.3c23.7,12.6,118.4,58.9,195.3,29.1l3,7.8l-2.1-8.1c78.7-31.5,115.4-131.9,123.8-157.7
					c-23.7-12.6-118.4-58.9-195.3-29.4l-5.1-6.9l3,7.5c-50.5,20.4-83.8,70-102.4,108.1l-6.9,15.6l-0.3-0.3
					C945.2,1605.3,941,1617.4,938.9,1624.3z"/>
			</g>
			<g>
				<path fill="#231F20" d="M1136.2,1657c-52.6,20.1-112.3-6-133.4-58c-21.3-52.9,4.5-113.6,57.4-134.9l1.5-0.6
					c52.6-20.1,112.3,6,133.4,58c21.3,52.9-4.5,113.2-57.4,134.9L1136.2,1657z M1067.8,1479.2c-46,18.6-67.3,69.4-49.6,113.9
					c17.7,43.9,67.9,65.8,112,48.7l3,7.8l-1.8-8.1c44.5-18,66.1-68.8,48.1-113.3C1162.1,1484,1111.9,1462,1067.8,1479.2z"/>
			</g>
			<g>
				<path fill="#231F20" d="M1110.1,1589.1c-15,5.7-32.4-1.8-38.5-16.8c-6-15.3,1.2-32.7,16.5-39.1l0,0c15.6-6,33,1.5,39.1,16.5
					c3,7.5,3,15.6-0.3,22.8c-3.3,7.2-9,12.9-16.2,16.2L1110.1,1589.1z M1094.5,1548.6c-7.2,3-10.5,10.8-7.5,17.7
					c2.7,6.9,10.5,10.2,17.4,7.5l3,7.8l-2.7-7.8c3.3-1.5,6-3.9,7.2-7.2c1.5-3.3,1.5-6.9,0-10.2
					C1109.2,1549.5,1101.4,1546.2,1094.5,1548.6z"/>
			</g>
			<g>
				<polygon fill="#231F20" points="924.5,1588.2 880.3,1573.5 885.4,1557.9 929.6,1572.3 				"/>
			</g>
			<g>
				<polygon fill="#231F20" points="937.1,1560.3 895.6,1539.2 902.8,1524.5 944.3,1545.6 				"/>
			</g>
			<g>
				<polygon fill="#231F20" points="950.6,1533.2 912.7,1506.5 922.4,1493 960.2,1519.7 				"/>
			</g>
			<g>
				<polygon fill="#231F20" points="971.3,1509.5 936.8,1478.9 947.6,1466.6 982.4,1497.2 				"/>
			</g>
		</g>
	</g>
</g>
<polygon fill="#231F20" points="246.8,223.8 263,220.8 249.5,214.8 "/>
<polygon fill="#231F20" points="290.6,388.1 303.5,374.9 297.2,366.5 289.7,368.6 "/>
<path fill="#231F20" d="M272.6,312.7c0,0,4.5-0.6,6.6-1.8c2.1-0.9,0.6,9.6,0.6,9.6L272.6,312.7z"/>
<polygon fill="#231F20" points="1216.8,222.6 1227,225.6 1220.1,216 "/>
<path fill="#231F20" d="M1164.8,299.5c0,0,9.3,6,14.4,7.8c5.4,1.8-16.2,5.4-16.2,5.4L1164.8,299.5z"/>
<path fill="#231F20" d="M100.2,716.5c0,0,11.4,4.8,16.8,6c5.4,1.2-12.9,9.6-12.9,9.6l-3.9-14.7V716.5z"/>
<polygon fill="#231F20" points="133.8,620.6 149.1,626.9 144,612.5 "/>
<polygon fill="#231F20" points="1052.4,507.4 1056.9,519.1 1072.6,510.7 "/>
<path fill="#231F20" d="M1099.6,623.3c0,0,5.4-0.9,8.4-3.3c3.3-2.4,0.6,12.6,0.6,12.6L1099.6,623.3z"/>
<polygon fill="#231F20" points="1125.7,692.1 1142.9,684.6 1136.2,713.8 "/>
<path fill="#231F20" d="M1178.9,852.5c0,0,3.6,3.3,5.4,3.9c1.8,0.6-7.8,3.3-7.8,3.3L1178.9,852.5z"/>
<polygon fill="#231F20" points="1213.1,807.2 1212.8,810.8 1216.5,812.6 1216.5,808.1 "/>
<path fill="#231F20" d="M1167.2,1252.4c0,0,5.7,3.6,7.2,4.5c1.5,0.9-12.3,6.6-12.3,6.6L1167.2,1252.4z"/>
<polygon fill="#231F20" points="1219.5,1169.2 1218.3,1176.1 1226.1,1174.3 "/>
<polygon fill="#231F20" points="1057.5,1453.6 1069.3,1467.2 1053.9,1472.3 "/>
<path fill="#231F20" d="M1102.6,1574.4c0,0,5.1-1.8,5.7-2.7c0.6-0.9,2.4,13.8,2.4,13.8L1102.6,1574.4z"/>
<path fill="#231F20" d="M1125.4,1643.5c0,0,12.3-4.5,13.5-5.4c1.2-0.9,0.6,24.3,0.6,24.3l-4.8,0.6L1125.4,1643.5z"/>
<path fill="#231F20" d="M1178.3,1803.3c0,0,4.2,3.9,6.6,4.8c2.4,0.9-8.4,3.3-8.4,3.3L1178.3,1803.3z"/>
<polygon fill="#231F20" points="1212.8,1758.5 1213.1,1761.8 1216.8,1763.3 1216.5,1759.4 "/>
<polygon fill="#231F20" points="138,1565.7 141.6,1575.3 146.7,1572.6 143.7,1566.9 "/>
<path fill="#231F20" d="M105.6,1669.9c0,0,6,2.4,7.5,2.4s-9.3,10.8-9.3,10.8L105.6,1669.9z"/>
<path fill="#231F20" d="M120.6,1633c0,0,1.8,0.6,4.2,0.3c2.4-0.3-5.1,3.9-5.1,3.9v-5.1L120.6,1633z"/>
<path fill="#231F20" d="M286.1,1320.9c0,0,15-3.9,17.1-5.4c2.1-1.5-7.8,23.4-7.8,23.4L286.1,1320.9z"/>
<path fill="#231F20" d="M271.4,1263.8c0,0,5.7,0.6,9.6-3c3.9-3.6-0.6,9.9-0.6,9.9l-8.1-0.3L271.4,1263.8z"/>
<polyline fill="#231F20" points="248.9,1167.1 249.2,1174.9 259.7,1174.3 252.5,1164.7 248.3,1168 "/>
<polygon fill="#231F20" points="246.5,861.2 251.3,864.9 253.4,862.1 248.3,860.6 "/>
<path fill="#231F20" d="M285.2,921c0,0,3.6-2.4,4.8-3.3c1.2-0.9,2.4,8.4,2.4,8.4l-5.7,3L285.2,921z"/>
<polygon fill="#231F20" points="272.6,898.5 273.8,897.6 275.6,901.2 272.9,900.6 "/>
</svg>
