<svg xmlns:dc="http://purl.org/dc/elements/1.1/" xmlns:cc="http://creativecommons.org/ns#" xmlns:rdf="http://www.w3.org/1999/02/22-rdf-syntax-ns#" xmlns:svg="http://www.w3.org/2000/svg" xmlns="http://www.w3.org/2000/svg" xmlns:sodipodi="http://sodipodi.sourceforge.net/DTD/sodipodi-0.dtd" xmlns:inkscape="http://www.inkscape.org/namespaces/inkscape" width="744.1" height="1052.4" id="svg2" version="1.1" inkscape:version="0.48.5 r10040"><style>.style0{fill:	none;stroke:	#000000;stroke-width:	1px;}.style1{fill:	#a0a0a0;}</style><defs id="defs4"/><metadata id="metadata7"><rdf:RDF><cc:Work rdf:about=""><dc:format>image/svg+xml</dc:format><dc:type rdf:resource="http://purl.org/dc/dcmitype/StillImage"/><dc:title/></cc:Work></rdf:RDF></metadata><g inkscape:label="Layer 1" inkscape:groupmode="layer" id="layer1"><path d="M 212.9 302.4 C 371.4 460.9 171.4 493.8 171.4 493.8 L 130 505.2 c -148.6 37.1 -90 -50 -90 -50 C 118.6 326.6 87.1 220.9 87.1 220.9 37.1 68.1 288.6 316.6 288.6 316.6 404.3 433.8 232.9 508.1 232.9 508.1 M 124.1 725.6 c 36.7 122.8 98.8 -26.6 98.8 -26.6 C 276.8 585.3 236.5 549.2 200.1 540.7 171.4 534.1 150.7 545.8 114 555.9 77.2 566.1 41.8 635.7 41.8 635.7 c -21.5 51.9 191.9 44.8 134.2 -8.9 -57.7 -53.7 -51.9 98.8 -51.9 98.8 z" id="path2985" inkscape:connector-curvature="0" class="style0"/><path d="m 155 772 c -9.2 -2.8 -20.4 -18.8 -26.8 -38.4 -2.7 -8.2 -2.8 -10.3 -2.3 -34.6 0.7 -28.7 0.5 -28.1 9.2 -28.2 8.9 -0.1 27.6 -4.9 37 -9.5 10.6 -5.2 14.6 -9.9 14.5 -17.1 -0.1 -6.8 -2.7 -11.2 -11.6 -19.4 -12.9 -11.9 -25.8 -13.7 -33.6 -4.5 -7.1 8.4 -12.9 24.8 -15.2 42.5 l -0.9 6.6 -14.8 -0 c -40.5 -0.1 -68.6 -11.1 -68.6 -27 0 -4.4 1.6 -8 8.3 -19.2 19.4 -32.4 38.4 -53.6 55.9 -62.7 6.1 -3.1 50.7 -16.8 62.5 -19.1 10.8 -2.1 29 -0.8 38.6 2.7 27 10.1 40 30.1 40 61.5 -0.1 30.6 -11.6 67.3 -35.6 113 -10.2 19.4 -17.9 30.7 -27.8 40.7 -11.3 11.5 -19.9 15.2 -28.9 12.5 z" id="path2987" inkscape:connector-curvature="0" class="style1"/></g></svg>